# xmcd
#
# Track frame offsets: 
#        150
#        22328
#        58460
#        76961
#        98977
#        123767
#        143961
#        163175
#
# Disc length: 3141 seconds
#
# Revision: 0
# Processed by: cddbd v1.5.2PL0 Copyright (c) Steve Scherf et al.
# Submitted via: ExactAudioCopy v0.95b4
#
DISCID=710c4308
DTITLE=Popa Chubby - Electric Chubbyland CD3 Studio
DYEAR=2006
DGENRE=Blues-Rock
TTITLE0=Manic Depression
TTITLE1=Up From The Skies
TTITLE2=I Don't Live Today
TTITLE3=Isabella
TTITLE4=Burning Of The Midnight Lamp
TTITLE5=Highway Chile
TTITLE6=Bold As Love
TTITLE7=San Catri (For Jimi)
EXTD=
EXTT0=
EXTT1=
EXTT2=
EXTT3=
EXTT4=
EXTT5=
EXTT6=
EXTT7=
PLAYORDER=
